<svg width="20" height="13" viewBox="0 0 20 13" fill="none" xmlns="http://www.w3.org/2000/svg">
<path fill-rule="evenodd" clip-rule="evenodd" d="M19.7478 6.60302C19.7478 6.41976 19.6762 6.24401 19.5488 6.11443C19.4214 5.98484 19.2486 5.91204 19.0684 5.91204L3.04354 5.91204L7.31982 1.56437C7.38299 1.50013 7.4331 1.42386 7.46729 1.33992C7.50148 1.25598 7.51907 1.16601 7.51907 1.07516C7.51907 0.984301 7.50148 0.894335 7.46729 0.810395C7.4331 0.726455 7.38299 0.650185 7.31982 0.58594C7.25665 0.521696 7.18166 0.470734 7.09913 0.435965C7.01659 0.401196 6.92813 0.383301 6.83879 0.383301C6.74946 0.383301 6.661 0.401196 6.57846 0.435965C6.49593 0.470734 6.42093 0.521696 6.35776 0.585941L0.922384 6.11381C0.859112 6.17799 0.808912 6.25425 0.774661 6.33819C0.740409 6.42214 0.722778 6.51214 0.722778 6.60302C0.722778 6.69391 0.740409 6.78391 0.774661 6.86785C0.808912 6.9518 0.859112 7.02805 0.922384 7.09224L6.35776 12.6201C6.42093 12.6844 6.49592 12.7353 6.57846 12.7701C6.661 12.8049 6.74946 12.8227 6.83879 12.8227C6.92813 12.8227 7.01659 12.8049 7.09913 12.7701C7.18166 12.7353 7.25665 12.6844 7.31982 12.6201C7.38299 12.5559 7.4331 12.4796 7.46729 12.3957C7.50148 12.3117 7.51907 12.2217 7.51907 12.1309C7.51907 12.04 7.50148 11.9501 7.46729 11.8661C7.4331 11.7822 7.38299 11.7059 7.31982 11.6417L3.04354 7.29401L19.0684 7.29401C19.2486 7.29401 19.4214 7.22121 19.5488 7.09162C19.6762 6.96204 19.7478 6.78628 19.7478 6.60302Z" fill="white"/>
</svg>
