<svg width="20" height="13" viewBox="0 0 20 13" fill="none" xmlns="http://www.w3.org/2000/svg">
<path fill-rule="evenodd" clip-rule="evenodd" d="M0.10631 6.60279C0.10631 6.78605 0.177892 6.9618 0.305308 7.09138C0.432724 7.22097 0.605539 7.29377 0.785733 7.29377L16.8106 7.29377L12.5343 11.6414C12.4711 11.7057 12.421 11.782 12.3868 11.8659C12.3526 11.9498 12.3351 12.0398 12.3351 12.1307C12.3351 12.2215 12.3526 12.3115 12.3868 12.3954C12.421 12.4794 12.4711 12.5556 12.5343 12.6199C12.5975 12.6841 12.6725 12.7351 12.755 12.7698C12.8375 12.8046 12.926 12.8225 13.0153 12.8225C13.1047 12.8225 13.1931 12.8046 13.2757 12.7698C13.3582 12.7351 13.4332 12.6841 13.4964 12.6199L18.9317 7.092C18.995 7.02782 19.0452 6.95157 19.0795 6.86762C19.1137 6.78367 19.1313 6.69368 19.1313 6.60279C19.1313 6.5119 19.1137 6.4219 19.0795 6.33796C19.0452 6.25401 18.995 6.17776 18.9317 6.11357L13.4964 0.585703C13.4332 0.521459 13.3582 0.470496 13.2757 0.435727C13.1931 0.400958 13.1047 0.383063 13.0153 0.383063C12.926 0.383063 12.8375 0.400958 12.755 0.435727C12.6725 0.470496 12.5975 0.521459 12.5343 0.585703C12.4711 0.649948 12.421 0.726217 12.3868 0.810157C12.3526 0.894097 12.3351 0.984063 12.3351 1.07492C12.3351 1.16577 12.3526 1.25574 12.3868 1.33968C12.421 1.42362 12.4711 1.49989 12.5343 1.56414L16.8106 5.9118L0.785733 5.9118C0.605539 5.9118 0.432724 5.9846 0.305308 6.11419C0.177892 6.24377 0.10631 6.41952 0.10631 6.60279Z" fill="white"/>
</svg>
