<svg width="30" height="31" viewBox="0 0 30 31" fill="none" xmlns="http://www.w3.org/2000/svg">
<g clip-path="url(#clip0_161_338)">
<path d="M15.0246 1.36182C7.26531 1.36182 0.975342 7.65179 0.975342 15.4111C0.975342 23.1704 7.26531 29.4603 15.0246 29.4603C22.7839 29.4603 29.0739 23.1704 29.0739 15.4111C29.0739 7.65179 22.7839 1.36182 15.0246 1.36182ZM11.5855 21.2342H8.74048V12.0788H11.5855V21.2342ZM10.1454 10.9548C9.24684 10.9548 8.66585 10.3182 8.66585 9.53087C8.66585 8.72743 9.2644 8.10985 10.182 8.10985C11.0996 8.10985 11.6616 8.72743 11.6791 9.53087C11.6791 10.3182 11.0996 10.9548 10.1454 10.9548ZM21.9761 21.2342H19.1311V16.1604C19.1311 14.9794 18.7184 14.1774 17.6896 14.1774C16.9037 14.1774 16.4368 14.7203 16.2305 15.2428C16.1544 15.4286 16.1354 15.6921 16.1354 15.954V21.2327H13.2889V14.9984C13.2889 13.8554 13.2523 12.8998 13.2143 12.0773H15.6861L15.8163 13.3491H15.8734C16.2481 12.752 17.1656 11.871 18.7008 11.871C20.5726 11.871 21.9761 13.1251 21.9761 15.8208V21.2342V21.2342Z" fill="#3D445C"/>
</g>
<defs>
<clipPath id="clip0_161_338">
<rect width="29.2693" height="29.2693" fill="white" transform="translate(0.389893 0.776367)"/>
</clipPath>
</defs>
</svg>
