<svg width="29" height="29" viewBox="0 0 29 29" fill="none" xmlns="http://www.w3.org/2000/svg">
<path d="M14.9284 0.361816C7.16912 0.361816 0.87915 6.65179 0.87915 14.4111C0.87915 22.1704 7.16912 28.4603 14.9284 28.4603C22.6877 28.4603 28.9777 22.1704 28.9777 14.4111C28.9777 6.65179 22.6877 0.361816 14.9284 0.361816ZM20.6432 11.8705C20.6491 11.9905 20.6506 12.1105 20.6506 12.2276C20.6506 15.8862 17.8685 20.1025 12.7786 20.1025C11.2746 20.105 9.80184 19.673 8.53746 18.8585C8.75259 18.8849 8.97357 18.8951 9.19748 18.8951C10.4941 18.8951 11.6868 18.4546 12.6337 17.7112C12.0567 17.6999 11.4976 17.5088 11.0343 17.1646C10.571 16.8204 10.2267 16.3403 10.0492 15.7911C10.4636 15.8699 10.8905 15.8534 11.2976 15.7428C10.6713 15.6162 10.108 15.2768 9.70341 14.7823C9.29878 14.2878 9.07763 13.6685 9.07748 13.0296V12.9959C9.45066 13.2023 9.87799 13.3281 10.3317 13.3427C9.74452 12.9519 9.32888 12.3515 9.16974 11.6643C9.0106 10.9772 9.11999 10.2552 9.47554 9.64603C10.1706 10.5007 11.0374 11.1999 12.0199 11.6983C13.0023 12.1967 14.0785 12.4832 15.1787 12.5393C15.0388 11.9456 15.099 11.3223 15.3499 10.7663C15.6008 10.2104 16.0284 9.75285 16.5661 9.46495C17.1039 9.17705 17.7217 9.07488 18.3235 9.17432C18.9253 9.27376 19.4774 9.56924 19.8939 10.0148C20.5132 9.8923 21.1071 9.66514 21.6501 9.3431C21.4437 9.98429 21.0116 10.5288 20.434 10.8753C20.9825 10.8093 21.5182 10.6618 22.0233 10.4378C21.6523 10.9937 21.1849 11.4789 20.6432 11.8705V11.8705Z" fill="#3D445C"/>
</svg>
